<?xml version="1.0" standalone="no"?><!DOCTYPE svg PUBLIC "-//W3C//DTD SVG 1.1//EN" "http://www.w3.org/Graphics/SVG/1.1/DTD/svg11.dtd"><svg t="1762786114598" class="icon" viewBox="0 0 1024 1024" version="1.1" xmlns="http://www.w3.org/2000/svg" p-id="6104" xmlns:xlink="http://www.w3.org/1999/xlink" width="200" height="200"><path d="M498.807467 347.2896c26.333867 0 43.9296-17.408 43.9296-43.3152 0-26.197333-17.5616-43.144533-43.9296-43.144533-26.385067 0-52.821333 16.9472-52.821333 43.144533C446.0032 329.898667 472.4736 347.2896 498.807467 347.2896zM253.064533 260.8128c-26.333867 0-52.957867 16.9472-52.957867 43.1616 0 25.9072 26.624 43.3152 52.957867 43.3152 26.231467 0 43.810133-17.408 43.810133-43.3152C296.8576 277.777067 279.330133 260.8128 253.064533 260.8128zM1024 624.5376c0-136.994133-128.836267-253.7472-286.976-265.8816 0.221867-1.706667 0.324267-3.464533-0.068267-5.239467C705.245867 207.581867 546.269867 97.621333 367.121067 97.621333 164.7104 97.621333 0 236.868267 0 408.029867c0 91.835733 47.5136 174.574933 137.5744 239.8208l-31.3856 93.098667c-2.013867 6.058667-0.187733 12.714667 4.693333 16.913067 2.9696 2.525867 6.724267 3.84 10.496 3.84 2.440533 0 4.898133-0.5632 7.168-1.672533l117.845333-58.180267 14.523733 2.901333c36.283733 7.355733 67.618133 13.738667 106.205867 13.738667 11.3664 0 42.615467-4.096 45.243733-7.389867 42.496 104.9088 159.624533 180.616533 297.437867 180.616533 35.310933 0 71.031467-8.3968 103.1168-16.315733l90.845867 48.9984c2.4064 1.297067 5.051733 1.962667 7.68 1.962667 3.584 0 7.168-1.194667 10.052267-3.515733 5.051733-4.0448 7.133867-10.7008 5.256533-16.7936l-23.210667-76.117333C981.333333 769.314133 1024 696.763733 1024 624.5376L1024 624.5376 1024 624.5376zM397.5168 676.2496c-10.0352 0.853333-20.206933 1.28-30.327467 1.28-34.082133 0-62.907733-5.819733-96.256-12.612267l-19.370667-3.874133c-3.328-0.699733-6.843733-0.238933-9.915733 1.314133l-85.162667 42.052267 22.135467-65.604267c2.167467-6.417067-0.2048-13.431467-5.802667-17.3056-85.572267-58.8288-128.938667-130.5088-128.938667-213.009067 0-148.292267 145.015467-268.987733 323.293867-268.987733 157.5936 0 297.1136 94.583467 325.905067 220.3648-165.239467 2.133333-298.939733 116.736-298.939733 257.467733 0 20.462933 3.140267 40.2944 8.465067 59.409067C401.015467 676.386133 399.325867 676.078933 397.5168 676.2496L397.5168 676.2496 397.5168 676.2496zM867.310933 802.696533c-5.085867 3.7888-7.236267 10.2912-5.410133 16.298667l14.3872 47.2064-59.067733-31.880533c-2.2528-1.2288-4.778667-1.860267-7.304533-1.860267-1.245867 0-2.491733 0.1536-3.720533 0.477867-31.675733 7.8848-64.4608 16.042667-96.375467 16.042667-148.241067 0-268.8512-100.5056-268.8512-224.034133 0-123.511467 120.593067-223.982933 268.8512-223.982933 145.425067 0 268.305067 102.570667 268.305067 223.982933C978.1248 686.557867 938.786133 749.687467 867.310933 802.696533L867.310933 802.696533 867.310933 802.696533zM612.983467 511.931733c-17.5616 0-35.140267 17.4592-35.140267 34.7648 0 17.425067 17.5616 34.628267 35.140267 34.628267 26.385067 0 43.8272-17.2032 43.8272-34.628267C656.810667 529.3568 639.3856 511.931733 612.983467 511.931733zM806.007467 511.931733c-17.3056 0-34.8672 17.4592-34.8672 34.7648 0 17.425067 17.5616 34.628267 34.8672 34.628267 26.299733 0 44.066133-17.2032 44.066133-34.628267C850.0736 529.3568 832.341333 511.931733 806.007467 511.931733z" p-id="6105"></path></svg>