<svg xmlns="http://www.w3.org/2000/svg" xmlns:xlink="http://www.w3.org/1999/xlink" fill="none" version="1.1" width="200" height="200" viewBox="0 0 200 200"><defs><clipPath id="master_svg0_4_460"><rect x="0" y="0" width="200" height="200" rx="0"/></clipPath></defs><g clip-path="url(#master_svg0_4_460)"><g><path d="M26.9974098,169.868977L33.249128,169.868977L34.652575,169.868977Q36.119816,169.868977,37.124556999999996,169.502167Q38.129297,169.135357,38.735331,168.545271Q39.341364,167.955185,39.596537,167.205617Q39.851709,166.456049,39.851709,165.658636Q39.851709,164.861221,39.596537,164.111654Q39.341364,163.362085,38.703434,162.771999Q38.065504000000004,162.18191339999998,36.99697,161.8151035Q35.928436,161.4482937,34.301714000000004,161.4482937L26.9974098,161.4482937L26.9974098,169.868977ZM23.8077575,161.4482937Q23.8077575,160.0448475,24.7008603,159.1517448Q25.5939629,158.2586422,26.9974098,158.2586422L34.301714000000004,158.2586422Q36.630160000000004,158.2586422,38.288779,158.9603653Q39.947399000000004,159.6620884,40.999984999999995,160.7306213Q42.052568,161.7991562,42.546965,163.106913Q43.041360999999995,164.414671,43.041360999999995,165.658636Q43.041360999999995,166.775014,42.642654,167.971133Q42.243948,169.167252,41.398691,170.20389Q40.553432,171.240528,39.261623,171.990095Q37.969814,172.739664,36.183609000000004,172.96294L42.881879999999995,182.787069Q43.168947,183.169827,43.168947,183.680172Q43.168947,184.349998,42.706448,184.8125Q42.243948,185.27499799999998,41.574121000000005,185.27499799999998Q41.159465999999995,185.27499799999998,40.824553,185.083618Q40.489639,184.892239,40.266363,184.573273L32.419818899999996,173.058628L26.9974098,173.058628L26.9974098,183.71206899999999Q26.9974098,184.381895,26.5349102,184.844395Q26.0724106,185.306892,25.4025836,185.306892Q24.732756600000002,185.306892,24.2702571,184.844395Q23.8077575,184.381895,23.8077575,183.71206899999999L23.8077575,171.782768Q23.775861,171.68707799999999,23.775861,171.463802Q23.775861,171.240528,23.8077575,171.144836L23.8077575,161.4482937ZM58.57497,175.801731Q58.57497,174.43018,58.112473,173.26595700000001Q57.649971,172.101734,56.82066,171.272423Q55.991352,170.443115,54.827126,169.980614Q53.662904999999995,169.518116,52.259457,169.518116Q50.887907,169.518116,49.739632,169.980614Q48.591358,170.443115,47.746099,171.272423Q46.900841,172.101734,46.438343,173.26595700000001Q45.975842,174.43018,45.975842,175.801731Q45.975842,177.205177,46.438343,178.353451Q46.900841,179.501726,47.746099,180.346985Q48.591358,181.192242,49.739632,181.654741Q50.887907,182.117241,52.259457,182.117241Q53.662904999999995,182.117241,54.827126,181.654741Q55.991352,181.192242,56.82066,180.346985Q57.649971,179.501726,58.112473,178.353451Q58.57497,177.205177,58.57497,175.801731ZM52.259457,166.328463Q54.237041000000005,166.328463,55.975403,167.062082Q57.713764,167.795702,59.005573,169.087513Q60.297382,170.379322,61.031002,172.101734Q61.764622,173.82414599999998,61.764622,175.801731Q61.764622,177.779314,61.031002,179.501726Q60.297382,181.224138,59.005573,182.515947Q57.713764,183.807758,55.975403,184.557327Q54.237041000000005,185.306892,52.259457,185.306892Q50.281874,185.306892,48.559461999999996,184.557327Q46.837047999999996,183.807758,45.561188,182.515947Q44.285326,181.224138,43.535759,179.501726Q42.786190000000005,177.779314,42.786190000000005,175.801731Q42.786190000000005,173.82414599999998,43.535759,172.101734Q44.285326,170.379322,45.577137,169.087513Q46.868946,167.795702,48.591358,167.062082Q50.313770000000005,166.328463,52.259457,166.328463ZM63.933582,167.891392Q63.933582,167.221565,64.396084,166.759066Q64.858582,166.296566,65.528408,166.296566Q66.198238,166.296566,66.660736,166.759066Q67.123238,167.221565,67.123238,167.891392L67.123238,178.066383Q67.123238,179.916382,68.23961299999999,181.016811Q69.355991,182.117241,71.588749,182.117241Q73.566334,182.117241,74.682713,181.000864Q75.799091,179.884485,75.799091,178.066383L75.799091,167.891392Q75.799091,167.221565,76.261589,166.759066Q76.724091,166.296566,77.393917,166.296566Q78.063744,166.296566,78.526245,166.759066Q78.988743,167.221565,78.988743,167.891392L78.988743,183.71206899999999Q78.988743,184.381895,78.526245,184.844395Q78.063744,185.306892,77.393917,185.306892Q76.78788399999999,185.306892,76.357281,184.94008300000002Q75.92667800000001,184.573273,75.830986,184.031033Q74.937885,184.637066,73.86935,184.971981Q72.80081899999999,185.306892,71.588749,185.306892Q69.866337,185.306892,68.462891,184.732758Q67.059444,184.158619,66.054703,183.169827Q65.049961,182.181034,64.491772,180.873278Q63.933582,179.565519,63.933582,178.066383L63.933582,167.891392ZM83.709427,184.764652Q83.23098,185.306892,82.49736,185.306892Q81.827534,185.306892,81.365032,184.844395Q80.902534,184.381895,80.902534,183.71206899999999Q80.902534,183.13793,81.28529,182.659483L87.154251,175.801731L81.28529,168.975874Q80.902534,168.497426,80.902534,167.923288Q80.902534,167.253462,81.365032,166.790962Q81.827534,166.328463,82.49736,166.328463Q83.23098,166.328463,83.709427,166.870703L89.291321,173.345697L94.841316,166.870703Q95.319763,166.328463,96.053383,166.328463Q96.723206,166.328463,97.185707,166.790962Q97.648209,167.253462,97.648209,167.923288Q97.648209,168.497426,97.26545,168.975874L91.396492,175.801731L97.26545,182.659483Q97.648209,183.13793,97.648209,183.71206899999999Q97.648209,184.381895,97.185707,184.844395Q96.723206,185.306892,96.053383,185.306892Q95.319763,185.306892,94.841316,184.764652L89.291321,178.28966L83.709427,184.764652ZM115.382675,158.2586422Q116.052505,158.2586422,116.514999,158.7211418Q116.977501,159.1836414,116.977501,159.8534679L116.977501,159.8853645Q116.977501,160.3319149,116.722328,160.7465706L103.453377,181.511208L115.382675,181.511208Q116.052505,181.511208,116.514999,181.973707Q116.977501,182.436207,116.977501,183.106033Q116.977501,183.775862,116.514999,184.238361Q116.052505,184.700859,115.382675,184.700859L100.582687,184.700859Q99.912865,184.700859,99.434418,184.222412Q98.955963,183.743965,98.955963,183.074137Q98.955963,182.627586,99.211136,182.212931L112.480095,161.4482937L100.518898,161.4482937Q99.849068,161.4482937,99.386566,160.9857941Q98.924072,160.5232944,98.924072,159.8534679Q98.924072,159.1836414,99.386566,158.7211418Q99.849068,158.2586422,100.518898,158.2586422L115.382675,158.2586422ZM135.47749,183.71206899999999Q135.47749,184.381895,135.01497999999998,184.844395Q134.55249,185.306892,133.88266,185.306892Q133.21284,185.306892,132.75034,184.844395Q132.28782999999999,184.381895,132.28782999999999,183.71206899999999L132.28782999999999,173.856041Q132.28782999999999,171.942249,131.02792,170.714233Q129.76801,169.486217,127.50336,169.486217Q126.54646,169.486217,125.6693,169.821133Q124.79215,170.156044,124.13828,170.746132Q123.4844,171.336216,123.10164,172.13362899999998Q122.71888,172.931042,122.71888,173.856041L122.71888,183.71206899999999Q122.71888,184.381895,122.256378,184.844395Q121.793877,185.306892,121.124054,185.306892Q120.454224,185.306892,119.991722,184.844395Q119.529228,184.381895,119.529228,183.71206899999999L119.529228,159.2793312Q119.529228,158.6095028,119.991722,158.1470032Q120.454224,157.6845036,121.124054,157.6845036Q121.793877,157.6845036,122.256378,158.1470032Q122.71888,158.6095028,122.71888,159.2793312L122.71888,167.923288Q123.73956,167.157772,124.98353,166.727169Q126.22749,166.296566,127.50336,166.296566Q129.22577,166.296566,130.67705999999998,166.902599Q132.12835,167.508634,133.19688,168.545271Q134.26542,169.581907,134.87144999999998,170.95345700000001Q135.47749,172.325008,135.47749,173.856041L135.47749,183.71206899999999ZM153.05247,179.46983Q153.72231,179.46983,154.1848,179.932329Q154.64729,180.39482900000002,154.64729,181.064657Q154.64729,181.638794,154.23265,182.117241Q152.92488,183.616379,151.02704,184.461636Q149.1292,185.306892,147.11972,185.306892Q144.95076,185.306892,143.21239,184.62112Q141.47404,183.935343,140.23007,182.69138Q138.98611,181.447414,138.31628,179.693106Q137.64645000000002,177.938797,137.64645000000002,175.801731Q137.64645000000002,173.856041,138.34818,172.117682Q139.04989999999998,170.379322,140.26197000000002,169.10345999999998Q141.47404,167.827599,143.10075,167.078031Q144.72748,166.328463,146.57747999999998,166.328463Q148.42747,166.328463,150.0223,167.03018600000001Q151.61713,167.73191,152.81325,168.959927Q154.00937,170.187943,154.72704,171.846561Q155.44472,173.50518,155.54041,175.387075Q155.5723,176.025005,155.1098,176.535351Q154.64729,177.045694,153.94557,177.045694L140.89989,177.045694Q141.53782999999999,182.117241,147.11972,182.117241Q148.52316000000002,182.117241,149.73524,181.575001Q150.9473,181.032761,151.8723,180.012072Q152.35075,179.46983,153.05247,179.46983ZM152.19127,174.175007Q151.74472,172.037941,150.26153,170.778027Q148.77834000000001,169.518116,146.57747999999998,169.518116Q144.44040999999999,169.518116,142.94128,170.778027Q141.44214,172.037941,140.99559,174.175007L152.19127,174.175007ZM172.73262,179.46983Q173.40245,179.46983,173.86496,179.932329Q174.32745,180.39482900000002,174.32745,181.064657Q174.32745,181.638794,173.9128,182.117241Q172.60504,183.616379,170.7072,184.461636Q168.80936,185.306892,166.79987,185.306892Q164.63091,185.306892,162.89255,184.62112Q161.15419,183.935343,159.91022,182.69138Q158.66626,181.447414,157.99643,179.693106Q157.3266,177.938797,157.3266,175.801731Q157.3266,173.856041,158.02834,172.117682Q158.73006,170.379322,159.94212,169.10345999999998Q161.15419,167.827599,162.78091,167.078031Q164.40764,166.328463,166.25763,166.328463Q168.10764,166.328463,169.70245,167.03018600000001Q171.29729,167.73191,172.49341,168.959927Q173.68951,170.187943,174.4072,171.846561Q175.12486,173.50518,175.22055,175.387075Q175.25246,176.025005,174.78995,176.535351Q174.32745,177.045694,173.62573,177.045694L160.58005,177.045694Q161.21799,182.117241,166.79987,182.117241Q168.20332,182.117241,169.41539,181.575001Q170.62746,181.032761,171.55246,180.012072Q172.0309,179.46983,172.73262,179.46983ZM171.87141,174.175007Q171.42487,172.037941,169.94168,170.778027Q168.4585,169.518116,166.25763,169.518116Q164.12056,169.518116,162.62143,170.778027Q161.12228,172.037941,160.67574,174.175007L171.87141,174.175007Z" fill="#4F46E5" fill-opacity="1" style="mix-blend-mode:passthrough"/></g><rect x="38.75" y="15" width="127.5" height="127.5" rx="11.961196899414062" fill="#4568FF" fill-opacity="0.5" style="mix-blend-mode:passthrough"/><rect x="43.75" y="12.5" width="127.5" height="127.5" rx="11.961196899414062" fill="#4F46E5" fill-opacity="0.1599999964237213" style="mix-blend-mode:passthrough"/><rect x="35" y="17.5" width="127.5" height="127.5" rx="11.961196899414062" fill="#4F46E5" fill-opacity="1" style="mix-blend-mode:passthrough"/><g><path d="M50.69638,68.68321962499999Q48.204464,69.306197625,47.6437826,69.306197625Q46.1486335,69.306197625,45.7748461,67.499557625L45.1518669,64.633853625Q44.9026756,63.637088625000004,44.9026756,62.827216625Q44.9026756,59.400833625000004,49.076634,58.528659625Q59.168894,56.535129525,64.401918,56.535129525Q69.634941,56.535129525,73.310516,57.345001625Q76.986095,58.154872624999996,79.72720000000001,60.023811625Q85.6455,64.13547162500001,85.6455,72.85717762499999Q85.6455,81.703479625,78.481243,85.565948625Q76.238518,86.749610625,73.310516,87.621780625Q78.29435000000001,91.858035625,83.776566,94.03846362499999Q86.517673,95.222122625,86.517673,97.21565662500001Q86.517673,98.33702062500001,85.6455,99.707572625L84.711033,101.202720625Q83.09129,103.819232625,80.786266,103.819232625Q79.789497,103.819232625,78.543541,103.258552625Q69.38575,99.022296625,62.034597000000005,91.35965362499999Q60.601746,89.92680362499999,60.601746,87.995567625Q60.601746,87.684078625,60.664043,87.37258862499999L61.349321,80.021438625Q61.411619,78.900073625,62.59528,78.900073625Q62.59528,78.900073625,62.719875,78.900073625L63.903534,78.962371625Q71.379284,78.962371625,74.369583,75.598285625Q75.61554000000001,74.290029625,75.61554000000001,72.171901625Q75.61554000000001,70.053771625,74.681072,68.932411625Q73.746601,67.811046625,72.376049,67.250366625Q70.257921,66.502792625,66.98728,66.502792625Q63.71664,66.502792625,61.287024,66.689685625Q59.355787,83.011733625,59.355787,100.019061625L59.418085000000005,102.573276625Q59.418085000000005,105.12749062500001,56.863873,105.252086625L48.8897409,105.376682625L48.8897409,105.065193625Q48.8897409,82.575652625,50.69638,68.68321962499999ZM95.613167,96.53038062499999Q95.613167,95.346717625,97.108315,95.346717625Q97.357506,95.346717625,97.668995,95.284423625Q104.085678,89.553016625,110.564659,83.074035625L108.758026,82.13956462499999Q107.823555,81.703479625,106.764488,81.20509762500001Q104.459465,80.08373262500001,104.459465,78.401691625Q104.459465,77.34262662500001,105.456238,76.03437062500001L106.951385,74.04083862499999Q108.633423,71.798114625,110.876152,71.798114625Q112.122108,71.798114625,113.492661,72.483390625Q116.358368,73.853944625,118.351898,74.975307625Q123.647217,69.119304625,123.647217,68.122539625Q123.647217,67.748748625,120.345428,67.748748625Q113.492661,67.748748625,107.761253,68.309432625Q102.02985000000001,68.870113625,101.53146699999999,68.870113625Q97.170612,68.870113625,96.609932,64.13547162500001L96.609932,63.948577625Q96.547634,63.325599624999995,96.547634,62.764919625Q96.547634,58.590957625,101.157677,58.217170625Q110.502365,57.095809625,120.656921,57.095809625Q136.66748,57.095809625,136.66748,64.384662625Q136.66748,69.991474625,127.634285,80.706710625Q128.132668,81.080501625,128.693352,81.48543562500001Q129.254028,81.890373625,130.126205,82.60679962500001Q130.998367,83.32322662499999,130.998367,84.319991625Q130.998367,85.31675762500001,130.313095,86.25122862500001L127.447388,90.175994625Q126.326035,91.671142625,125.204666,91.671142625Q124.083305,91.671142625,123.179985,90.954719625Q122.276665,90.238292625,121.622543,89.771057625Q120.968414,89.303825625,120.283134,88.805438625L117.791214,91.297355625Q116.482964,92.60561362499999,115.112411,93.913867625L115.797684,93.913867625Q123.024246,93.913867625,132.18203699999998,94.474548625Q137.103561,94.848335625,137.103561,99.520679625Q137.103561,99.520679625,137.103561,100.081359625L137.041267,100.330551625Q136.792076,105.314384625,131.99514,105.314384625Q131.99514,105.314384625,127.416245,105.034042625Q122.837349,104.753703625,117.417435,104.753703625Q108.571129,104.753703625,104.957848,105.09634062500001Q101.344574,105.438979625,100.908485,105.438979625Q98.97725299999999,105.438979625,97.70014599999999,104.411064625Q96.42303799999999,103.38314862499999,96.111549,100.76663562499999L95.613167,96.779571625Q95.613167,96.779571625,95.613167,96.53038062499999ZM144.454715,103.507743625Q144.454715,103.196254625,144.485875,102.822467625Q144.51701500000001,102.44868062500001,144.51701500000001,102.074893625Q144.51701500000001,101.701106625,144.579315,101.389617625Q144.953105,96.343486625,149.81233500000002,96.343486625Q149.81233500000002,96.343486625,150.248425,96.343486625L151.494375,96.468082625Q156.353615,96.71727362499999,156.353615,101.32731662500001Q156.353615,101.32731662500001,156.353615,101.88800062499999Q156.353615,102.760169625,156.229015,103.756934625Q155.979825,108.55387462499999,151.245185,108.55387462499999Q151.245185,108.55387462499999,149.625445,108.55387462499999Q144.454715,108.366981625,144.454715,103.507743625Z" fill="#FFFFFF" fill-opacity="1" style="mix-blend-mode:passthrough"/></g></g></svg>